<svg xmlns="http://www.w3.org/2000/svg" xmlns:xlink="http://www.w3.org/1999/xlink" width="500" zoomAndPan="magnify" viewBox="0 0 375 374.999991" height="500" preserveAspectRatio="xMidYMid meet" version="1.0"><defs><clipPath id="9eb9d54d6f"><path d="M 54 245 L 321 245 L 321 356.25 L 54 356.25 Z M 54 245 " clip-rule="nonzero"/></clipPath><clipPath id="c4513bc453"><path d="M 99 18.75 L 276 18.75 L 276 119 L 99 119 Z M 99 18.75 " clip-rule="nonzero"/></clipPath></defs><path fill="#4b33bb" d="M 67.125 349.804688 C 65.019531 349.804688 63.042969 348.78125 61.832031 347.054688 C 60.621094 345.332031 60.324219 343.128906 61.039062 341.144531 C 80.195312 287.960938 131.042969 252.230469 187.574219 252.230469 C 244.101562 252.230469 294.949219 287.960938 314.105469 341.144531 C 314.820312 343.128906 314.523438 345.332031 313.3125 347.054688 C 312.097656 348.78125 310.125 349.804688 308.019531 349.804688 Z M 67.125 349.804688 " fill-opacity="1" fill-rule="nonzero"/><g clip-path="url(#9eb9d54d6f)"><path fill="#000000" d="M 187.574219 258.699219 C 243.042969 258.699219 290.246094 293.992188 308.019531 343.335938 L 67.125 343.335938 C 84.898438 293.992188 132.101562 258.699219 187.574219 258.699219 M 187.574219 245.761719 C 157.992188 245.761719 129.675781 254.832031 105.6875 271.992188 C 82.234375 288.769531 64.6875 311.921875 54.953125 338.953125 C 53.527344 342.917969 54.117188 347.328125 56.542969 350.777344 C 58.964844 354.222656 62.914062 356.273438 67.125 356.273438 L 308.019531 356.273438 C 312.234375 356.273438 316.183594 354.222656 318.605469 350.777344 C 321.027344 347.328125 321.621094 342.917969 320.191406 338.953125 C 310.457031 311.925781 292.914062 288.769531 269.460938 271.992188 C 245.472656 254.832031 217.15625 245.761719 187.574219 245.761719 Z M 187.574219 245.761719 " fill-opacity="1" fill-rule="nonzero"/></g><path fill="#4b33bb" d="M 218.507812 343.335938 L 308.019531 343.335938 C 297.007812 312.757812 274.679688 287.585938 246.101562 272.855469 C 245.359375 299.539062 235.042969 324.148438 218.507812 343.335938 Z M 218.507812 343.335938 " fill-opacity="1" fill-rule="nonzero"/><path fill="#cbcbcb" d="M 187.574219 270.78125 C 147.242188 270.78125 113.101562 242.105469 105.722656 203.105469 C 93.097656 202.449219 83.027344 191.972656 83.027344 179.1875 L 83.027344 168.730469 C 83.027344 156.449219 92.3125 146.296875 104.234375 144.933594 L 104.234375 141.449219 C 104.234375 95.496094 141.621094 58.109375 187.574219 58.109375 C 233.527344 58.109375 270.914062 95.496094 270.914062 141.449219 L 270.914062 144.933594 C 282.832031 146.296875 292.121094 156.449219 292.121094 168.730469 L 292.121094 179.1875 C 292.121094 191.972656 282.050781 202.449219 269.429688 203.105469 C 262.042969 242.101562 227.902344 270.78125 187.574219 270.78125 Z M 187.574219 270.78125 " fill-opacity="1" fill-rule="nonzero"/><path fill="#000000" d="M 187.574219 64.578125 C 230.027344 64.578125 264.445312 98.996094 264.445312 141.449219 L 264.445312 151.652344 C 265.648438 151.394531 266.886719 151.246094 268.167969 151.246094 C 277.824219 151.246094 285.652344 159.074219 285.652344 168.730469 L 285.652344 179.1875 C 285.652344 188.84375 277.824219 196.671875 268.167969 196.671875 C 266.707031 196.671875 265.300781 196.472656 263.945312 196.136719 C 259.621094 234.496094 227.085938 264.3125 187.574219 264.3125 C 148.058594 264.3125 115.523438 234.496094 111.207031 196.136719 C 109.847656 196.472656 108.4375 196.671875 106.976562 196.671875 C 97.320312 196.671875 89.496094 188.84375 89.496094 179.1875 L 89.496094 168.730469 C 89.496094 159.074219 97.320312 151.246094 106.976562 151.246094 C 108.257812 151.246094 109.5 151.394531 110.703125 151.652344 L 110.703125 141.449219 C 110.699219 98.996094 145.117188 64.578125 187.574219 64.578125 M 187.574219 51.640625 C 138.628906 51.640625 98.699219 91 97.78125 139.730469 C 85.488281 143.636719 76.558594 155.160156 76.558594 168.730469 L 76.558594 179.1875 C 76.558594 193.6875 86.753906 205.851562 100.355469 208.882812 C 110.023438 248.566406 145.703125 277.25 187.574219 277.25 C 229.445312 277.25 265.125 248.5625 274.796875 208.882812 C 288.394531 205.851562 298.589844 193.6875 298.589844 179.191406 L 298.589844 168.730469 C 298.589844 155.164062 289.660156 143.640625 277.367188 139.730469 C 276.445312 90.996094 236.519531 51.640625 187.574219 51.640625 Z M 187.574219 51.640625 " fill-opacity="1" fill-rule="nonzero"/><path fill="#4b33bb" d="M 268.167969 151.246094 C 266.886719 151.246094 265.648438 151.394531 264.445312 151.652344 L 264.445312 141.449219 C 264.445312 99.988281 231.617188 66.210938 190.539062 64.652344 C 226.777344 78.464844 253.089844 113.84375 253.089844 154.457031 C 253.089844 206.785156 209.421875 250.453125 157.09375 250.453125 C 151.894531 250.453125 146.777344 250.003906 141.78125 249.171875 C 154.570312 258.679688 170.414062 264.308594 187.574219 264.308594 C 227.085938 264.308594 259.621094 234.492188 263.945312 196.132812 C 265.300781 196.46875 266.707031 196.667969 268.167969 196.667969 C 277.824219 196.667969 285.652344 188.84375 285.652344 179.1875 L 285.652344 168.726562 C 285.652344 159.074219 277.824219 151.246094 268.167969 151.246094 Z M 268.167969 151.246094 " fill-opacity="1" fill-rule="nonzero"/><path fill="#4b33bb" d="M 187.574219 153.777344 C 140.621094 153.777344 96.425781 150.652344 63.128906 144.984375 C 12.503906 136.367188 6.648438 125.230469 6.648438 117.605469 C 6.648438 109.980469 12.503906 98.847656 63.128906 90.230469 C 96.425781 84.558594 140.621094 81.4375 187.574219 81.4375 C 234.523438 81.4375 278.71875 84.558594 312.019531 90.230469 C 362.644531 98.847656 368.496094 109.980469 368.496094 117.605469 C 368.496094 125.230469 362.644531 136.367188 312.019531 144.984375 C 278.71875 150.652344 234.523438 153.777344 187.574219 153.777344 Z M 187.574219 153.777344 " fill-opacity="1" fill-rule="nonzero"/><path fill="#000000" d="M 187.574219 87.90625 C 283.921875 87.90625 362.03125 101.203125 362.03125 117.609375 C 362.03125 134.011719 283.921875 147.308594 187.574219 147.308594 C 91.222656 147.308594 13.117188 134.011719 13.117188 117.609375 C 13.117188 101.203125 91.21875 87.90625 187.574219 87.90625 M 187.574219 74.972656 C 140.269531 74.972656 95.6875 78.125 62.042969 83.855469 C 45.113281 86.734375 31.636719 90.164062 21.996094 94.046875 C 16.601562 96.21875 0.179688 102.828125 0.179688 117.609375 C 0.179688 132.390625 16.601562 138.996094 21.996094 141.171875 C 31.636719 145.050781 45.113281 148.480469 62.042969 151.363281 C 95.6875 157.089844 140.269531 160.246094 187.574219 160.246094 C 234.875 160.246094 279.457031 157.09375 313.105469 151.363281 C 330.035156 148.480469 343.507812 145.050781 353.148438 141.171875 C 358.546875 138.996094 374.964844 132.390625 374.964844 117.609375 C 374.964844 102.828125 358.546875 96.21875 353.148438 94.046875 C 343.507812 90.164062 330.035156 86.734375 313.105469 83.855469 C 279.457031 78.125 234.875 74.972656 187.574219 74.972656 Z M 187.574219 74.972656 " fill-opacity="1" fill-rule="nonzero"/><path fill="#4b33bb" d="M 187.574219 111.914062 C 169.367188 111.914062 151.941406 111.210938 138.503906 109.933594 C 116.566406 107.851562 110.90625 104.867188 108.257812 102.21875 C 107.101562 101.066406 105.878906 99.011719 106.367188 95.683594 C 106.59375 56.761719 129.738281 25.191406 158.160156 25.191406 L 216.988281 25.191406 C 245.410156 25.191406 268.558594 56.761719 268.78125 95.683594 C 269.265625 99.003906 268.050781 101.054688 266.894531 102.214844 C 264.242188 104.867188 258.578125 107.851562 236.644531 109.933594 C 223.207031 111.210938 205.78125 111.914062 187.574219 111.914062 Z M 187.574219 111.914062 " fill-opacity="1" fill-rule="nonzero"/><g clip-path="url(#c4513bc453)"><path fill="#000000" d="M 216.988281 31.660156 C 242.019531 31.660156 262.3125 60.578125 262.3125 96.253906 C 262.3125 96.253906 262.558594 97.398438 262.3125 97.648438 C 257.113281 102.847656 222.34375 105.445312 187.570312 105.445312 C 152.800781 105.445312 118.03125 102.847656 112.832031 97.648438 C 112.585938 97.402344 112.832031 96.253906 112.832031 96.253906 C 112.832031 60.578125 133.125 31.660156 158.15625 31.660156 C 169.386719 31.660156 205.757812 31.660156 216.988281 31.660156 M 216.988281 18.722656 L 158.15625 18.722656 C 141.949219 18.722656 126.40625 27.625 115.515625 43.148438 C 105.617188 57.257812 100.089844 75.714844 99.902344 95.222656 C 99.179688 101.234375 101.902344 105.015625 103.695312 106.804688 C 108.003906 111.113281 115.230469 114.222656 137.890625 116.375 C 151.523438 117.671875 169.167969 118.382812 187.570312 118.382812 C 205.976562 118.382812 223.621094 117.667969 237.253906 116.375 C 259.910156 114.222656 267.140625 111.113281 271.460938 106.792969 C 273.253906 104.996094 275.957031 101.21875 275.246094 95.230469 C 275.058594 75.71875 269.527344 57.257812 259.625 43.148438 C 248.734375 27.625 233.195312 18.722656 216.988281 18.722656 Z M 216.988281 18.722656 " fill-opacity="1" fill-rule="nonzero"/></g><path fill="#000000" d="M 127.378906 177.136719 C 126.609375 177.136719 125.828125 176.996094 125.066406 176.707031 L 91.953125 164.03125 C 88.617188 162.757812 86.949219 159.015625 88.222656 155.679688 C 89.503906 152.34375 93.242188 150.675781 96.578125 151.953125 L 129.691406 164.625 C 133.027344 165.902344 134.699219 169.640625 133.421875 172.976562 C 132.433594 175.550781 129.980469 177.136719 127.378906 177.136719 Z M 127.378906 177.136719 " fill-opacity="1" fill-rule="nonzero"/><path fill="#000000" d="M 247.769531 177.136719 C 245.164062 177.136719 242.710938 175.550781 241.726562 172.976562 C 240.449219 169.640625 242.117188 165.898438 245.457031 164.625 L 278.570312 151.949219 C 281.914062 150.671875 285.648438 152.34375 286.925781 155.679688 C 288.199219 159.015625 286.53125 162.753906 283.195312 164.03125 L 250.078125 176.707031 C 249.320312 176.996094 248.539062 177.136719 247.769531 177.136719 Z M 247.769531 177.136719 " fill-opacity="1" fill-rule="nonzero"/><path fill="#cbcbcb" d="M 150.261719 219.195312 C 133.492188 219.195312 119.847656 203.617188 119.847656 184.472656 C 119.847656 179.714844 120.695312 175.070312 122.359375 170.667969 C 123.3125 168.152344 125.722656 166.488281 128.410156 166.488281 L 172.117188 166.488281 C 174.800781 166.488281 177.207031 168.148438 178.160156 170.65625 C 179.832031 175.054688 180.679688 179.703125 180.679688 184.472656 C 180.679688 203.617188 167.035156 219.195312 150.261719 219.195312 Z M 150.261719 219.195312 " fill-opacity="1" fill-rule="nonzero"/><path fill="#000000" d="M 172.117188 172.957031 C 173.453125 176.476562 174.210938 180.367188 174.210938 184.472656 C 174.210938 200.074219 163.488281 212.726562 150.261719 212.726562 C 137.039062 212.726562 126.316406 200.074219 126.316406 184.472656 C 126.316406 180.367188 127.078125 176.476562 128.410156 172.957031 L 172.117188 172.957031 M 172.117188 160.019531 L 128.410156 160.019531 C 123.03125 160.019531 118.214844 163.347656 116.308594 168.375 C 114.363281 173.515625 113.378906 178.929688 113.378906 184.472656 C 113.378906 207.183594 129.921875 225.664062 150.261719 225.664062 C 170.597656 225.664062 187.144531 207.183594 187.144531 184.472656 C 187.144531 178.914062 186.15625 173.492188 184.207031 168.359375 C 182.300781 163.339844 177.488281 160.019531 172.117188 160.019531 Z M 172.117188 160.019531 " fill-opacity="1" fill-rule="nonzero"/><path fill="#cbcbcb" d="M 224.882812 219.195312 C 208.113281 219.195312 194.46875 203.617188 194.46875 184.472656 C 194.46875 179.703125 195.3125 175.054688 196.984375 170.65625 C 197.9375 168.148438 200.347656 166.488281 203.03125 166.488281 L 246.738281 166.488281 C 249.425781 166.488281 251.835938 168.152344 252.785156 170.667969 C 254.453125 175.070312 255.296875 179.714844 255.296875 184.472656 C 255.296875 203.617188 241.652344 219.195312 224.882812 219.195312 Z M 224.882812 219.195312 " fill-opacity="1" fill-rule="nonzero"/><path fill="#000000" d="M 246.738281 172.957031 C 248.070312 176.476562 248.828125 180.367188 248.828125 184.472656 C 248.828125 200.074219 238.109375 212.726562 224.882812 212.726562 C 211.65625 212.726562 200.933594 200.074219 200.933594 184.472656 C 200.933594 180.367188 201.691406 176.476562 203.03125 172.957031 L 246.738281 172.957031 M 246.738281 160.019531 L 203.03125 160.019531 C 197.660156 160.019531 192.847656 163.339844 190.9375 168.359375 C 188.988281 173.492188 188 178.914062 188 184.472656 C 188 207.183594 204.546875 225.664062 224.882812 225.664062 C 245.21875 225.664062 261.765625 207.183594 261.765625 184.472656 C 261.765625 178.929688 260.78125 173.515625 258.835938 168.375 C 256.933594 163.347656 252.113281 160.019531 246.738281 160.019531 Z M 246.738281 160.019531 " fill-opacity="1" fill-rule="nonzero"/><path fill="#000000" d="M 193.023438 248.992188 L 182.121094 248.992188 C 178.550781 248.992188 175.65625 246.097656 175.65625 242.523438 C 175.65625 238.953125 178.550781 236.054688 182.121094 236.054688 L 193.023438 236.054688 C 196.597656 236.054688 199.492188 238.953125 199.492188 242.523438 C 199.492188 246.097656 196.597656 248.992188 193.023438 248.992188 Z M 193.023438 248.992188 " fill-opacity="1" fill-rule="nonzero"/><path fill="#000000" d="M 187.570312 326.039062 C 186.785156 326.039062 185.988281 325.894531 185.214844 325.589844 L 155.898438 314.117188 C 152.570312 312.816406 150.929688 309.066406 152.230469 305.738281 C 153.53125 302.410156 157.292969 300.773438 160.609375 302.070312 L 189.929688 313.542969 C 193.253906 314.84375 194.898438 318.597656 193.597656 321.921875 C 192.597656 324.476562 190.15625 326.039062 187.570312 326.039062 Z M 187.570312 326.039062 " fill-opacity="1" fill-rule="nonzero"/><path fill="#000000" d="M 187.574219 326.039062 C 184.992188 326.039062 182.546875 324.476562 181.550781 321.925781 C 180.25 318.597656 181.890625 314.847656 185.21875 313.546875 L 214.535156 302.074219 C 217.855469 300.773438 221.613281 302.410156 222.914062 305.738281 C 224.21875 309.066406 222.578125 312.820312 219.25 314.121094 L 189.929688 325.589844 C 189.15625 325.894531 188.359375 326.039062 187.574219 326.039062 Z M 187.574219 326.039062 " fill-opacity="1" fill-rule="nonzero"/><path fill="#4b33bb" d="M 216.894531 314.5625 C 215.664062 314.5625 214.441406 314.214844 213.375 313.523438 C 211.539062 312.332031 210.425781 310.289062 210.425781 308.097656 L 210.425781 249.679688 C 210.425781 247.199219 211.84375 244.941406 214.074219 243.859375 L 262.957031 220.167969 C 263.851562 219.734375 264.816406 219.519531 265.78125 219.519531 C 266.976562 219.519531 268.167969 219.851562 269.214844 220.507812 C 271.101562 221.691406 272.25 223.761719 272.25 225.988281 L 272.25 286.25 C 272.25 288.800781 270.75 291.113281 268.417969 292.15625 L 219.535156 314 C 218.691406 314.378906 217.792969 314.5625 216.894531 314.5625 Z M 216.894531 314.5625 " fill-opacity="1" fill-rule="nonzero"/><path fill="#000000" d="M 265.78125 225.988281 L 265.78125 286.25 L 216.894531 308.097656 L 216.894531 249.679688 L 265.78125 225.988281 M 265.78125 213.050781 C 263.855469 213.050781 261.925781 213.480469 260.136719 214.347656 L 211.25 238.039062 C 206.789062 240.199219 203.957031 244.722656 203.957031 249.679688 L 203.957031 308.09375 C 203.957031 312.476562 206.179688 316.5625 209.855469 318.949219 C 211.984375 320.328125 214.433594 321.03125 216.894531 321.03125 C 218.6875 321.03125 220.488281 320.660156 222.171875 319.90625 L 271.058594 298.058594 C 275.71875 295.980469 278.71875 291.351562 278.71875 286.25 L 278.71875 225.984375 C 278.71875 221.53125 276.425781 217.390625 272.648438 215.023438 C 270.558594 213.714844 268.171875 213.050781 265.78125 213.050781 Z M 265.78125 213.050781 " fill-opacity="1" fill-rule="nonzero"/><path fill="#4b33bb" d="M 158.253906 314.5625 C 157.355469 314.5625 156.457031 314.378906 155.613281 314 L 106.726562 292.15625 C 104.398438 291.113281 102.894531 288.800781 102.894531 286.25 L 102.894531 225.988281 C 102.894531 223.757812 104.042969 221.691406 105.929688 220.507812 C 106.976562 219.851562 108.167969 219.519531 109.363281 219.519531 C 110.328125 219.519531 111.292969 219.734375 112.1875 220.167969 L 161.074219 243.859375 C 163.304688 244.941406 164.722656 247.203125 164.722656 249.679688 L 164.722656 308.097656 C 164.722656 310.289062 163.613281 312.332031 161.773438 313.523438 C 160.707031 314.214844 159.484375 314.5625 158.253906 314.5625 Z M 158.253906 314.5625 " fill-opacity="1" fill-rule="nonzero"/><path fill="#000000" d="M 109.363281 225.988281 L 158.253906 249.679688 L 158.253906 308.097656 L 109.363281 286.25 L 109.363281 225.988281 M 109.363281 213.050781 C 106.972656 213.050781 104.589844 213.714844 102.496094 215.027344 C 98.722656 217.390625 96.429688 221.53125 96.429688 225.988281 L 96.429688 286.25 C 96.429688 291.351562 99.429688 295.980469 104.085938 298.0625 L 152.976562 319.90625 C 154.660156 320.660156 156.460938 321.03125 158.253906 321.03125 C 160.714844 321.03125 163.164062 320.332031 165.289062 318.949219 C 168.96875 316.566406 171.191406 312.480469 171.191406 308.097656 L 171.191406 249.679688 C 171.191406 244.722656 168.355469 240.199219 163.894531 238.039062 L 115.007812 214.347656 C 113.21875 213.480469 111.289062 213.050781 109.363281 213.050781 Z M 109.363281 213.050781 " fill-opacity="1" fill-rule="nonzero"/></svg>